<?xml version="1.0" standalone="no"?>
<!DOCTYPE svg PUBLIC "-//W3C//DTD SVG 20010904//EN"
 "http://www.w3.org/TR/2001/REC-SVG-20010904/DTD/svg10.dtd">
<svg version="1.0" xmlns="http://www.w3.org/2000/svg"
 width="980.000000pt" height="980.000000pt" viewBox="0 0 980.000000 980.000000"
 preserveAspectRatio="xMidYMid meet">
<metadata>
Created by potrace 1.11, written by Peter Selinger 2001-2013
</metadata>
<g transform="translate(0.000000,980.000000) scale(0.100000,-0.100000)"
fill="#000000" stroke="none">
<path d="M4210 9794 c-204 -25 -492 -137 -700 -272 -258 -167 -409 -324 -619
-644 -96 -147 -88 -143 -227 -108 -312 80 -620 64 -919 -47 -430 -160 -802
-542 -944 -969 -47 -141 -62 -228 -68 -399 -4 -124 -2 -184 11 -268 54 -343
201 -616 468 -872 175 -168 346 -277 551 -350 l92 -33 6 -2268 c8 -2739 6
-2700 112 -2909 118 -235 368 -470 602 -567 143 -59 203 -68 545 -79 447 -15
3109 -6 3209 10 285 47 580 246 756 511 156 234 185 361 185 821 l0 249 23 4
c12 3 92 8 177 11 224 9 388 24 446 40 47 13 61 26 161 137 129 145 321 376
418 503 296 388 507 908 556 1370 16 152 25 1772 10 1930 -8 87 -17 131 -35
171 -131 285 -650 482 -1211 460 -190 -7 -347 -27 -451 -56 -42 -12 -79 -19
-82 -15 -4 4 -8 124 -10 267 l-4 261 150 146 c171 167 251 270 322 415 97 196
135 417 112 644 -29 295 -132 506 -362 746 -109 114 -230 204 -355 266 -191
94 -347 131 -565 131 -164 0 -276 -19 -430 -71 -63 -21 -115 -38 -116 -37 -27
47 -203 264 -260 321 -255 255 -613 460 -922 527 -81 17 -139 21 -347 24 -137
2 -266 1 -285 -1z m526 -568 c233 -50 426 -155 589 -320 106 -108 159 -184
266 -387 138 -261 147 -270 299 -277 115 -5 135 2 248 86 154 114 247 143 460
143 159 -1 204 -11 332 -77 146 -75 227 -155 291 -287 57 -119 83 -244 76
-370 -19 -341 -192 -572 -492 -659 -67 -19 -103 -23 -225 -22 -136 0 -151 2
-235 31 -155 54 -246 119 -327 234 -48 69 -112 120 -181 143 -60 20 -178 21
-217 1 -15 -8 -82 -74 -148 -147 -164 -183 -276 -287 -358 -336 -214 -127
-472 -192 -718 -179 -255 13 -439 78 -645 229 -191 140 -301 176 -403 131 -81
-37 -114 -76 -190 -227 -89 -178 -126 -235 -202 -314 -285 -298 -762 -373
-1151 -182 -125 62 -220 133 -299 225 -160 188 -196 311 -196 665 0 221 7 263
66 389 100 214 266 377 479 469 117 50 137 53 405 59 l255 6 155 -78 c254
-128 298 -139 397 -110 100 30 161 118 217 314 85 299 299 570 571 726 114 64
305 120 480 139 80 8 332 -3 401 -18z m1249 -2588 c198 -99 438 -158 639 -158
l89 0 -7 -2652 c-4 -1459 -10 -2714 -14 -2788 -7 -120 -11 -142 -37 -195 -41
-86 -140 -180 -242 -233 l-81 -42 -1761 0 -1761 0 -92 46 c-147 74 -223 168
-264 326 -15 57 -17 226 -21 1788 -3 949 -2 2022 2 2385 l7 661 112 28 c211
53 464 167 601 269 39 29 147 130 241 224 l170 173 110 -49 c354 -158 723
-211 1081 -155 273 42 657 226 912 436 l93 78 77 -54 c42 -29 108 -69 146 -88z
m2440 -1004 l70 -19 3 -750 c3 -914 -6 -1226 -42 -1370 -63 -257 -189 -540
-328 -742 -63 -90 -269 -349 -374 -467 -52 -59 -89 -92 -109 -98 -16 -4 -108
-11 -202 -14 l-173 -7 1 1384 c0 1309 8 2013 24 2051 17 41 220 57 690 54 327
-3 378 -5 440 -22z"/>
<path d="M3177 5949 c-157 -26 -351 -186 -393 -324 -38 -127 -39 -205 -39
-2135 0 -1404 3 -1894 12 -1949 42 -265 312 -464 574 -424 111 18 190 62 289
162 120 121 141 164 151 310 4 64 8 987 8 2051 l1 1936 -51 83 c-90 145 -203
237 -339 274 -73 20 -154 26 -213 16z m199 -304 c27 -14 63 -38 80 -54 l31
-28 7 -1584 c3 -871 2 -1779 -2 -2017 l-9 -433 -29 -41 c-63 -90 -197 -118
-307 -64 -72 35 -96 69 -109 153 -7 46 -9 691 -7 2026 l4 1958 40 34 c66 56
112 75 186 75 50 0 77 -6 115 -25z"/>
<path d="M5797 5949 c-149 -22 -306 -148 -387 -311 l-42 -85 -10 -234 c-6
-149 -8 -884 -5 -2021 l6 -1787 36 -69 c53 -102 120 -180 205 -237 92 -62 160
-86 265 -92 68 -4 92 -1 151 19 142 50 252 148 338 302 l49 88 -7 1890 c-4
1039 -11 1958 -16 2043 -8 142 -11 159 -37 207 -103 191 -343 317 -546 287z
m171 -294 c20 -9 61 -39 90 -68 l52 -51 0 -2004 0 -2003 -46 -49 c-81 -86
-207 -110 -310 -59 -57 28 -78 62 -93 154 -23 129 -33 1060 -27 2370 7 1501
12 1619 70 1674 51 48 189 67 264 36z"/>
<path d="M4416 5930 c-79 -28 -162 -86 -228 -159 -82 -91 -107 -147 -118 -272
-11 -118 -14 -3568 -3 -3864 l6 -189 52 -75 c95 -141 263 -247 407 -258 211
-16 416 115 529 339 l29 57 0 2026 0 2025 -42 77 c-62 113 -172 222 -274 270
-74 36 -85 38 -189 41 -91 2 -120 -1 -169 -18z m247 -276 c56 -19 111 -77 129
-136 10 -35 13 -423 13 -2018 l0 -1976 -44 -39 c-89 -81 -107 -90 -179 -88
-88 2 -141 24 -196 83 l-46 49 0 2003 0 2004 53 51 c28 29 68 59 87 67 46 20
125 20 183 0z"/>
</g>
</svg>
